<?xml version="1.0" encoding="utf-8"?>
<!-- Generator: Adobe Illustrator 21.1.0, SVG Export Plug-In . SVG Version: 6.00 Build 0)  -->
<svg version="1.1" id="Layer_1" xmlns="http://www.w3.org/2000/svg" xmlns:xlink="http://www.w3.org/1999/xlink" x="0px" y="0px"
	 viewBox="0 0 509.2 123.2" style="enable-background:new 0 0 509.2 123.2;" xml:space="preserve">
<g>
	<path d="M65.2,0c5.4,0,10.3,0.9,14.7,2.6c4.3,1.8,8.1,4.2,11.2,7.2c3.1,3.1,5.5,6.6,7.1,10.6c1.6,4,2.5,8.3,2.5,13
		c0,7.1-1.5,13.3-4.5,18.5c-3,5.2-7.9,9.2-14.7,11.9v0.3c3.3,0.9,6,2.3,8.1,4.2c2.1,1.9,3.9,4.1,5.3,6.6c1.4,2.5,2.3,5.3,3,8.4
		c0.6,3.1,1,6.1,1.3,9.2c0.1,1.9,0.2,4.2,0.3,6.8c0.1,2.6,0.3,5.3,0.6,8c0.3,2.7,0.7,5.3,1.4,7.7c0.6,2.4,1.6,4.5,2.8,6.2H77.6
		c-1.5-3.8-2.4-8.4-2.7-13.7c-0.3-5.3-0.8-10.4-1.5-15.3c-0.9-6.3-2.8-11-5.8-13.9c-2.9-2.9-7.7-4.4-14.4-4.4H26.6V121H0V0H65.2z
		 M55.8,54.7c6.1,0,10.7-1.4,13.7-4.1c3.1-2.7,4.6-7.1,4.6-13.2c0-5.9-1.5-10.1-4.6-12.8c-3.1-2.7-7.6-4-13.7-4H26.6v34.1H55.8z"/>
	<path d="M145.6,100c3.6,3.5,8.8,5.3,15.6,5.3c4.9,0,9-1.2,12.5-3.6c3.5-2.4,5.6-5,6.4-7.7h21.2c-3.4,10.5-8.6,18-15.6,22.5
		c-7,4.5-15.5,6.8-25.4,6.8c-6.9,0-13.1-1.1-18.6-3.3c-5.5-2.2-10.2-5.3-14.1-9.4c-3.8-4.1-6.8-8.9-8.9-14.6
		c-2.1-5.6-3.1-11.9-3.1-18.6c0-6.6,1.1-12.7,3.2-18.3c2.1-5.6,5.2-10.5,9.2-14.7c4-4.1,8.7-7.4,14.1-9.7c5.5-2.4,11.5-3.6,18.2-3.6
		c7.5,0,14,1.4,19.5,4.3c5.5,2.9,10.1,6.8,13.6,11.6c3.6,4.9,6.1,10.4,7.7,16.6c1.6,6.2,2.1,12.7,1.7,19.5h-63.2
		C140,90.8,141.9,96.5,145.6,100z M172.8,53.9c-2.9-3.2-7.3-4.7-13.1-4.7c-3.8,0-7,0.7-9.6,1.9c-2.5,1.3-4.6,2.9-6.1,4.8
		c-1.5,1.9-2.6,4-3.2,6.1c-0.6,2.1-1,4.1-1.1,5.8h39.1C177.7,61.7,175.6,57.1,172.8,53.9z"/>
	<path d="M240,33.4v12.2h0.5c3.1-5.1,7-8.8,11.9-11.1c4.9-2.3,9.8-3.5,14.9-3.5c6.4,0,11.7,0.9,15.8,2.6c4.1,1.8,7.4,4.2,9.7,7.3
		c2.4,3.1,4,6.9,5,11.4c1,4.5,1.4,9.4,1.4,14.8V121h-24.1V71.5c0-7.2-1.1-12.6-3.4-16.2c-2.3-3.6-6.3-5.3-12-5.3
		c-6.6,0-11.3,1.9-14.2,5.8c-2.9,3.9-4.4,10.3-4.4,19.2V121h-24.1V33.4H240z"/>
	<path d="M410.6,0v22.4h-63.9v25.9h58.6V69h-58.6v29.7H412V121h-91.8V0H410.6z"/>
	<path d="M420.9,33.4h27.5l15.4,22.9l15.3-22.9h26.6l-28.8,41l32.4,46.6h-27.5l-18.3-27.6L445.2,121h-26.9l31.5-46.1L420.9,33.4z"/>
</g>
</svg>
